<?xml version="1.0" encoding="utf-8"?>
<!-- Generator: Adobe Illustrator 24.0.3, SVG Export Plug-In . SVG Version: 6.00 Build 0)  -->
<svg version="1.1" id="Layer_1" xmlns:serif="http://www.serif.com/"
	 xmlns="http://www.w3.org/2000/svg" xmlns:xlink="http://www.w3.org/1999/xlink" x="0px" y="0px" viewBox="-40 -210 2000 1500"
	 enable-background="new -40 -210 2000 1500" xml:space="preserve">
<path fill="#CFCFF9" d="M1006.038-23.341c1.875-1.082,4.272-1.041,6.739,0.383l45.912,26.403c4.915,2.834,8.257,10.08,7.465,16.169
	l-7.251,52.796c-0.395,3.03-1.743,5.207-3.602,6.282l0,0l0,0c-0.163,0.095-0.33,0.18-0.501,0.256l-8.575,3.697l0.273-7.905
	l-42.306-24.324c-4.913-2.834-8.256-10.079-7.463-16.169l6.707-48.621l-6.008-5.254L1006.038-23.341L1006.038-23.341z"/>
<path fill="#BDBDF7" d="M1065.974,20.935l-7.08,51.476c-0.395,3.03-1.74,5.207-3.599,6.281l-0.502,0.257l-7.602,3.278l6.784-56.573
	L1065.974,20.935z"/>
<path fill="#ECECFC" d="M1057.046,23.58c0.794-6.091-2.55-13.336-7.464-16.169l-45.887-26.419c-4.913-2.834-9.547-0.19-10.341,5.901
	l-7.251,52.799c-0.794,6.089,2.55,13.334,7.464,16.168l45.887,26.419c4.914,2.834,9.547,0.191,10.339-5.9L1057.046,23.58z"/>
<path fill="#CFCFF9" d="M1483.443-25.229c3.046-1.758,6.94-1.692,10.949,0.62l74.578,42.892
	c7.984,4.604,13.415,16.372,12.126,26.264l-11.781,85.762c-0.641,4.923-2.828,8.459-5.847,10.203l0,0h-0.002
	c-0.265,0.153-0.536,0.292-0.812,0.418l-13.929,6.004l0.443-12.841l-68.722-39.513c-7.979-4.603-13.412-16.372-12.124-26.264
	l10.898-78.98l-9.764-8.535L1483.443-25.229L1483.443-25.229z"/>
<path fill="#BDBDF7" d="M1580.81,46.694l-11.5,83.615c-0.643,4.923-2.829,8.459-5.848,10.203l-0.815,0.418l-12.349,5.323
	l11.022-91.897L1580.81,46.694L1580.81,46.694z"/>
<path fill="#ECECFC" d="M1566.31,50.989c1.29-9.892-4.141-21.662-12.125-26.264l-74.539-42.914
	c-7.979-4.604-15.506-0.308-16.796,9.584l-11.78,85.765c-1.29,9.892,4.144,21.661,12.124,26.264l74.539,42.913
	c7.982,4.603,15.509,0.309,16.797-9.581L1566.31,50.989z"/>
<path fill="#B3B3F6" d="M1525.029,653.559c60.656-35.021,159.149-35.021,219.808,0c60.656,35.02,60.656,91.885,0,126.906
	c-60.659,35.021-159.151,35.021-219.808,0C1464.372,745.444,1464.372,688.578,1525.029,653.559z"/>
<path fill="#A8A8F3" d="M25.984,431.437l455.894,269.184c3.059,1.807,8.018,1.807,11.076,0.003l293.238-173.098
	c3.057-1.807,3.057-4.728-0.004-6.533L329.474,252.035c-3.06-1.802-8.021-1.799-11.078,0.007L25.984,424.894
	C22.926,426.706,22.926,429.63,25.984,431.437z"/>
<path fill="#B37BFF" d="M492.706,685.483l285.733-168.271c1.449-0.852,2.176-1.967,2.182-3.084
	c0.004-1.125,0.014-14.714,0.014-14.714l-9.257,7.451L331.778,248.492c-2.907-1.711-7.62-1.711-10.532,0.004l-278.2,163.831
	l-9.254-7.269c0.003-0.096,0.007,13.375-0.023,14.475c-0.034,1.146,0.694,2.297,2.178,3.173l206.452,121.527
	c2.907,1.713,5.265,4.728,5.265,6.734c0,2.011,2.361,5.026,5.267,6.736l36.933,21.824c2.906,1.713,5.263,1.474,5.263-0.531
	c0-2.011,2.358-2.247,5.263-0.537l181.787,107.023C485.085,687.192,489.798,687.192,492.706,685.483L492.706,685.483z"/>
<path fill="#BE8EFF" d="M488.439,686.652c1.553-0.126,3.071-0.467,4.267-1.17l285.733-168.271c1.449-0.852,2.176-1.967,2.182-3.084
	c0.004-1.125,0.014-14.714,0.014-14.714l-9.257,7.451l-86.511-50.844H488.439V686.652z"/>
<path fill="#9647FF" d="M492.723,670.953l285.74-168.273c2.909-1.713,2.906-4.484,0-6.196L331.936,233.882
	c-2.911-1.712-7.624-1.712-10.53,0.002L35.972,401.975c-2.91,1.713-2.91,4.488,0,6.2l211.667,124.652
	c2.909,1.713,5.267,4.725,5.267,6.734c0.003,2.011,2.359,5.024,5.265,6.736l26.51,15.61c2.903,1.712,5.261,1.473,5.261-0.534
	c0-2.006,2.358-2.247,5.263-0.532l186.987,110.112C485.102,672.666,489.812,672.666,492.723,670.953L492.723,670.953z"/>
<path fill="#CACAF8" d="M271.072,532.144l0.069-8.095c0.085-9.986-17.435-38.481-39.237-51.319L55.351,368.788v36.315
	L271.072,532.144z"/>
<path fill="#DFDFFB" d="M271.145,524.305l0.003-0.26v-0.058c0.01-7.186-8.984-23.845-22.106-37.413
	c-5.172-5.347-10.985-10.213-17.142-13.83L122.057,408.06l-66.699-39.278l271.584-159.934l0.084,0.062l176.462,103.89
	c19.112,11.255,34.935,34.539,38.492,46.839L275.948,516.306c0.211-0.124,0.428-0.241,0.643-0.357
	C273.26,518.112,271.294,521.11,271.145,524.305z"/>
<path fill="#C2C2F6" d="M482.994,401.995l0.003-0.261v-0.059c0.01-7.186-8.983-23.845-22.106-37.41
	c-5.172-5.347-10.985-10.215-17.143-13.831L333.905,285.75l-66.699-39.279l59.735-37.624l0.084,0.062l176.462,103.89
	c19.112,11.255,34.935,34.539,38.492,46.839l-54.183,34.355c0.211-0.124,0.428-0.239,0.643-0.356
	C485.109,395.802,483.143,398.8,482.994,401.995z"/>
<path fill="#CACAF8" d="M271.138,524.624c0.084-9.988,17.951-18.3,39.796-5.533l176.478,103.141v37.312l-216.341-127.4
	C271.071,532.144,271.052,534.613,271.138,524.624z"/>
<path fill="#DFDFFB" d="M487.412,659.544v-37.312l271.582-159.937l-0.003,37.314L487.412,659.544z"/>
<path fill="#ECF6F7" d="M310.915,519.095l7.91,4.614l168.584,98.517L727.3,480.952l31.69-18.661l-176.492-103.13
	c-16.006-9.367-24.951-8.618-31.245-4.98L275.948,516.306C285.884,510.588,297.543,511.522,310.915,519.095L310.915,519.095z"/>
<g>
	<defs>
		<rect id="SVGID_1_" x="275.948" y="351.66" width="483.042" height="270.565"/>
	</defs>
	<clipPath id="SVGID_2_">
		<use xlink:href="#SVGID_1_"  overflow="visible"/>
	</clipPath>
	<g clip-path="url(#SVGID_2_)">
		<path fill="#ECECFC" d="M487.408,622.225l-168.584-98.517l-7.91-4.614c-4.813-2.723-9.403-4.589-13.77-5.595
			c-1.711-0.395-3.383-0.656-5.028-0.787c-0.804-0.062-1.606-0.097-2.397-0.097c-4.664,0-9.042,1.109-13.129,3.332
			c-0.215,0.117-0.431,0.234-0.643,0.357l275.305-162.125c2.61-1.509,5.674-2.521,9.509-2.521c5.414,0,12.365,2.019,21.736,7.501
			l176.492,103.13L487.408,622.225z"/>
	</g>
</g>
<path fill="#AFAFF4" d="M352.266,260.649c1.05-0.589,1.067-1.541,0.041-2.122l-18.781-10.641c-1.029-0.581-2.713-0.574-3.763,0.017
	l-2.051,1.153c-1.05,0.589-1.067,1.541-0.041,2.123l18.781,10.64c1.028,0.581,2.713,0.576,3.763-0.015L352.266,260.649
	L352.266,260.649z"/>
<path fill="#AFAFF4" d="M232.062,324.846c1.049-0.589,1.069-1.541,0.041-2.124l-18.781-10.639c-1.027-0.581-2.713-0.574-3.763,0.015
	l-2.051,1.154c-1.05,0.589-1.067,1.54-0.041,2.122l18.781,10.641c1.03,0.58,2.715,0.574,3.763-0.015L232.062,324.846z"/>
<path fill="#AFAFF4" d="M369.938,290.382c1.065-0.588,1.105-1.536,0.089-2.12l-53.494-30.644c-1.016-0.584-2.703-0.581-3.766,0.005
	l-2.083,1.148c-1.061,0.588-1.103,1.537-0.087,2.12l53.494,30.644c1.016,0.584,2.703,0.58,3.767-0.006l2.083-1.148H369.938z"/>
<path fill="#AFAFF4" d="M247.596,354.898c1.048-0.591,1.065-1.541,0.036-2.124l-54.173-30.531c-1.027-0.58-2.713-0.574-3.761,0.015
	l-2.052,1.157c-1.048,0.589-1.065,1.54-0.037,2.122l54.173,30.53c1.029,0.581,2.713,0.574,3.763-0.017L247.596,354.898
	L247.596,354.898z"/>
<path fill="#AFAFF4" d="M314.705,319.655c1.05-0.589,1.067-1.541,0.04-2.123l-54.137-30.536c-1.027-0.583-2.713-0.576-3.763,0.014
	l-2.054,1.156c-1.048,0.589-1.067,1.541-0.04,2.122l54.139,30.538c1.027,0.581,2.711,0.574,3.761-0.017L314.705,319.655z"/>
<path fill="#AFAFF4" d="M192.713,384.402c1.048-0.589,1.067-1.541,0.04-2.122l-54.139-30.538c-1.027-0.583-2.712-0.576-3.762,0.015
	l-2.053,1.155c-1.048,0.589-1.067,1.541-0.04,2.122l54.139,30.538c1.026,0.581,2.711,0.574,3.761-0.015L192.713,384.402z"/>
<path fill="#AFAFF4" d="M426.549,322.864c1.064-0.588,1.103-1.538,0.09-2.121l-47.425-27.269c-1.014-0.584-2.701-0.581-3.765,0.005
	l-2.081,1.148c-1.065,0.588-1.103,1.538-0.089,2.121l47.424,27.269c1.015,0.583,2.703,0.581,3.766-0.005L426.549,322.864z"/>
<path fill="#AFAFF4" d="M310.729,388.671c1.05-0.589,1.066-1.541,0.038-2.123l-48.028-27.168c-1.028-0.583-2.713-0.574-3.762,0.015
	l-2.051,1.154c-1.048,0.591-1.064,1.541-0.036,2.124l48.028,27.168c1.027,0.581,2.711,0.574,3.759-0.015L310.729,388.671
	L310.729,388.671z"/>
<path fill="#AFAFF4" d="M374.373,353.504c1.05-0.589,1.067-1.541,0.041-2.122l-47.997-27.175c-1.027-0.581-2.711-0.574-3.761,0.015
	l-2.054,1.155c-1.048,0.589-1.065,1.54-0.04,2.122l47.996,27.175c1.027,0.58,2.713,0.574,3.763-0.015L374.373,353.504z"/>
<path fill="#AFAFF4" d="M253.156,418.526c1.048-0.589,1.067-1.541,0.04-2.123L205.2,389.229c-1.027-0.58-2.713-0.574-3.763,0.015
	l-2.051,1.155c-1.05,0.589-1.067,1.541-0.041,2.122l47.997,27.175c1.027,0.58,2.713,0.574,3.762-0.017L253.156,418.526z"/>
<path fill="#AFAFF4" d="M352.023,295.001c1.048-0.59,1.067-1.54,0.038-2.122l-49.626-28.089c-1.028-0.581-2.713-0.574-3.762,0.015
	l-2.053,1.154c-1.05,0.59-1.067,1.54-0.04,2.122l49.628,28.089c1.026,0.581,2.711,0.574,3.761-0.015L352.023,295.001z"/>
<path fill="#AFAFF4" d="M231.474,358.984c1.048-0.591,1.068-1.541,0.04-2.124l-49.626-28.089c-1.027-0.58-2.713-0.574-3.763,0.016
	l-2.054,1.154c-1.048,0.589-1.065,1.541-0.04,2.122l49.628,28.089c1.026,0.581,2.712,0.574,3.762-0.015L231.474,358.984
	L231.474,358.984z"/>
<path fill="#AFAFF4" d="M296.508,324.654c1.048-0.589,1.065-1.541,0.04-2.122l-49.628-28.09c-1.026-0.581-2.713-0.574-3.761,0.015
	l-2.054,1.157c-1.048,0.589-1.067,1.539-0.04,2.122l49.628,28.089c1.028,0.58,2.712,0.574,3.762-0.016L296.508,324.654
	L296.508,324.654z"/>
<path fill="#AFAFF4" d="M175.972,388.643c1.05-0.591,1.067-1.541,0.041-2.122l-49.628-28.089c-1.026-0.583-2.713-0.576-3.762,0.014
	l-2.053,1.155c-1.048,0.591-1.067,1.541-0.04,2.122l49.628,28.089c1.026,0.583,2.712,0.576,3.762-0.014L175.972,388.643z"/>
<path fill="#AFAFF4" d="M326.197,294.101c1.05-0.589,1.067-1.541,0.041-2.122l-36.136-20.46c-1.03-0.583-2.713-0.574-3.763,0.015
	l-2.053,1.153c-1.048,0.591-1.068,1.541-0.04,2.122l36.136,20.461c1.027,0.583,2.713,0.576,3.763-0.014L326.197,294.101z"/>
<path fill="#AFAFF4" d="M203.581,358.999c1.048-0.589,1.067-1.541,0.04-2.122l-36.136-20.46c-1.027-0.583-2.713-0.576-3.762,0.014
	l-2.053,1.154c-1.048,0.591-1.067,1.541-0.04,2.122l36.136,20.461c1.027,0.581,2.713,0.574,3.762-0.015L203.581,358.999z"/>
<path fill="#AFAFF4" d="M270.356,323.551c1.05-0.589,1.069-1.541,0.041-2.124l-36.137-20.46c-1.026-0.583-2.712-0.576-3.762,0.015
	l-2.052,1.155c-1.049,0.589-1.069,1.539-0.041,2.122l36.137,20.462c1.026,0.58,2.712,0.574,3.762-0.018l2.053-1.153H270.356z"/>
<path fill="#AFAFF4" d="M150.554,387.164c1.05-0.589,1.067-1.54,0.041-2.122l-36.137-20.46c-1.027-0.581-2.712-0.574-3.762,0.015
	l-2.053,1.153c-1.05,0.591-1.067,1.541-0.04,2.123l36.136,20.462c1.027,0.581,2.713,0.574,3.762-0.016L150.554,387.164z"/>
<path fill="#AFAFF4" d="M430.294,339.331c1.048-0.589,1.067-1.541,0.039-2.122l-68.777-38.956c-1.027-0.581-2.713-0.574-3.761,0.015
	l-2.054,1.155c-1.05,0.589-1.069,1.541-0.041,2.122l68.779,38.956c1.026,0.581,2.713,0.574,3.761-0.015L430.294,339.331z"/>
<path fill="#AFAFF4" d="M310.135,403.555c1.048-0.589,1.067-1.54,0.038-2.122l-68.776-38.955c-1.028-0.581-2.712-0.574-3.762,0.015
	l-2.054,1.154c-1.05,0.59-1.067,1.541-0.039,2.122l68.778,38.956c1.026,0.581,2.712,0.574,3.759-0.015L310.135,403.555z"/>
<path fill="#AFAFF4" d="M380.15,372.335c1.05-0.589,1.067-1.541,0.039-2.124l-68.776-38.953c-1.028-0.583-2.713-0.576-3.763,0.015
	l-2.052,1.154c-1.049,0.59-1.067,1.541-0.041,2.122l68.778,38.956c1.026,0.58,2.712,0.574,3.762-0.017L380.15,372.335
	L380.15,372.335z"/>
<path fill="#AFAFF4" d="M254.632,433.216c1.05-0.591,1.067-1.541,0.04-2.122l-68.776-38.956c-1.027-0.582-2.713-0.576-3.763,0.014
	l-2.051,1.157c-1.048,0.589-1.067,1.54-0.041,2.122l68.778,38.953c1.028,0.583,2.713,0.576,3.762-0.014L254.632,433.216
	L254.632,433.216z"/>
<path fill="#AFAFF4" d="M428.273,351.935c1.05-0.589,1.067-1.541,0.041-2.122l-92.194-52.215c-1.029-0.583-2.713-0.576-3.763,0.014
	l-2.052,1.155c-1.05,0.591-1.067,1.541-0.041,2.122l92.194,52.217c1.027,0.583,2.713,0.574,3.763-0.015L428.273,351.935z"/>
<path fill="#AFAFF4" d="M308.657,416.088c1.048-0.591,1.067-1.541,0.04-2.122l-92.194-52.217c-1.027-0.58-2.713-0.575-3.761,0.015
	l-2.054,1.155c-1.05,0.589-1.067,1.541-0.04,2.122l92.193,52.217c1.028,0.581,2.712,0.574,3.762-0.017L308.657,416.088z"/>
<path fill="#AFAFF4" d="M372.433,381.383c1.048-0.589,1.067-1.54,0.04-2.122l-92.195-52.217c-1.026-0.581-2.712-0.574-3.76,0.017
	l-2.053,1.153c-1.05,0.591-1.067,1.541-0.04,2.124l92.193,52.216c1.026,0.58,2.713,0.576,3.762-0.015L372.433,381.383z"/>
<path fill="#AFAFF4" d="M252.63,444.998c1.05-0.589,1.067-1.541,0.041-2.122l-92.196-52.216c-1.026-0.583-2.711-0.576-3.761,0.015
	l-2.054,1.153c-1.05,0.591-1.067,1.541-0.04,2.123l92.194,52.216c1.027,0.583,2.713,0.575,3.761-0.015L252.63,444.998z"/>
<path fill="#AFAFF4" d="M590.301,398.08c1.05-0.591,1.067-1.541,0.04-2.124l-18.781-10.64c-1.026-0.582-2.712-0.575-3.762,0.015
	l-2.054,1.155c-1.048,0.589-1.067,1.54-0.039,2.122l18.782,10.639c1.026,0.583,2.712,0.576,3.759-0.015L590.301,398.08z"/>
<path fill="#AFAFF4" d="M470.1,462.276c1.048-0.589,1.067-1.541,0.04-2.122l-18.781-10.642c-1.027-0.581-2.713-0.574-3.763,0.015
	l-2.052,1.155c-1.05,0.589-1.069,1.541-0.04,2.122l18.781,10.642c1.026,0.581,2.712,0.574,3.762-0.015L470.1,462.276z"/>
<path fill="#AFAFF4" d="M607.977,427.812c1.062-0.586,1.103-1.536,0.088-2.119l-53.494-30.646c-1.016-0.582-2.703-0.581-3.766,0.007
	l-2.081,1.146c-1.064,0.588-1.103,1.538-0.09,2.122l53.494,30.643c1.015,0.584,2.703,0.581,3.766-0.005L607.977,427.812
	L607.977,427.812z"/>
<path fill="#AFAFF4" d="M485.629,492.327c1.05-0.589,1.065-1.541,0.04-2.122l-54.174-30.533c-1.027-0.58-2.713-0.574-3.762,0.016
	l-2.053,1.156c-1.048,0.59-1.064,1.541-0.036,2.122l54.174,30.53c1.027,0.581,2.713,0.574,3.762-0.015L485.629,492.327z"/>
<path fill="#AFAFF4" d="M552.734,457.085c1.05-0.589,1.069-1.541,0.041-2.122l-54.139-30.538c-1.026-0.582-2.713-0.574-3.761,0.016
	l-2.054,1.154c-1.048,0.589-1.067,1.541-0.04,2.122l54.137,30.538c1.027,0.581,2.715,0.574,3.763-0.015L552.734,457.085z"/>
<path fill="#AFAFF4" d="M430.747,521.832c1.05-0.589,1.067-1.541,0.041-2.122l-54.138-30.538c-1.028-0.58-2.712-0.574-3.762,0.016
	l-2.054,1.154c-1.048,0.589-1.067,1.541-0.041,2.124l54.14,30.536c1.027,0.582,2.712,0.575,3.762-0.015L430.747,521.832z"/>
<path fill="#AFAFF4" d="M664.58,460.293c1.063-0.588,1.103-1.536,0.089-2.12l-47.423-27.27c-1.016-0.584-2.703-0.581-3.766,0.007
	l-2.083,1.146c-1.062,0.588-1.103,1.537-0.086,2.122l47.422,27.267c1.014,0.583,2.703,0.581,3.766-0.005L664.58,460.293
	L664.58,460.293z"/>
<path fill="#AFAFF4" d="M548.762,526.1c1.048-0.589,1.065-1.541,0.036-2.122l-48.026-27.17c-1.03-0.58-2.713-0.574-3.763,0.015
	l-2.051,1.156c-1.048,0.589-1.064,1.541-0.036,2.122l48.026,27.168c1.03,0.583,2.716,0.574,3.763-0.015L548.762,526.1L548.762,526.1
	z"/>
<path fill="#AFAFF4" d="M612.412,490.935c1.05-0.591,1.068-1.541,0.04-2.124l-47.995-27.175c-1.027-0.581-2.715-0.574-3.763,0.015
	l-2.052,1.154c-1.05,0.591-1.069,1.541-0.041,2.122l47.997,27.174c1.026,0.581,2.712,0.574,3.762-0.015L612.412,490.935z"/>
<path fill="#AFAFF4" d="M491.192,555.955c1.048-0.589,1.067-1.541,0.041-2.122l-47.999-27.174c-1.026-0.581-2.712-0.574-3.759,0.015
	l-2.055,1.154c-1.048,0.591-1.065,1.54-0.038,2.122l47.996,27.176c1.027,0.581,2.711,0.574,3.761-0.015L491.192,555.955z"/>
<path fill="#AFAFF4" d="M590.054,432.432c1.05-0.591,1.067-1.541,0.041-2.124l-49.628-28.089c-1.026-0.58-2.713-0.574-3.762,0.015
	l-2.053,1.155c-1.048,0.589-1.068,1.54-0.04,2.122l49.626,28.089c1.027,0.583,2.713,0.576,3.763-0.014l2.051-1.156V432.432z"/>
<path fill="#AFAFF4" d="M469.51,496.413c1.048-0.591,1.065-1.541,0.04-2.122l-49.628-28.089c-1.026-0.583-2.712-0.576-3.762,0.014
	l-2.053,1.155c-1.048,0.591-1.067,1.541-0.04,2.122l49.628,28.089c1.027,0.582,2.711,0.576,3.761-0.014L469.51,496.413z"/>
<path fill="#AFAFF4" d="M534.543,462.083c1.05-0.589,1.067-1.54,0.04-2.122l-49.628-28.089c-1.026-0.583-2.712-0.575-3.762,0.014
	l-2.054,1.157c-1.048,0.589-1.067,1.541-0.04,2.122l49.628,28.089c1.026,0.581,2.711,0.576,3.761-0.015L534.543,462.083
	L534.543,462.083z"/>
<path fill="#AFAFF4" d="M414.009,526.073c1.048-0.589,1.068-1.541,0.04-2.122l-49.628-28.089c-1.026-0.581-2.711-0.576-3.761,0.015
	l-2.054,1.153c-1.05,0.591-1.067,1.541-0.04,2.124l49.628,28.089c1.026,0.582,2.712,0.574,3.762-0.015L414.009,526.073z"/>
<path fill="#AFAFF4" d="M564.229,431.53c1.048-0.589,1.068-1.54,0.04-2.122l-36.137-20.46c-1.026-0.58-2.712-0.574-3.76,0.015
	l-2.055,1.153c-1.048,0.591-1.065,1.541-0.039,2.123l36.137,20.462c1.026,0.581,2.712,0.574,3.762-0.015L564.229,431.53z"/>
<path fill="#AFAFF4" d="M441.617,496.428c1.05-0.589,1.067-1.541,0.039-2.122l-36.136-20.46c-1.027-0.582-2.711-0.574-3.761,0.015
	l-2.054,1.153c-1.05,0.591-1.067,1.541-0.041,2.124l36.138,20.46c1.026,0.583,2.711,0.576,3.761-0.014L441.617,496.428z"/>
<path fill="#AFAFF4" d="M508.393,460.98c1.048-0.589,1.065-1.541,0.04-2.122l-36.136-20.462c-1.027-0.582-2.713-0.576-3.763,0.016
	l-2.051,1.154c-1.05,0.589-1.069,1.541-0.041,2.122l36.136,20.461c1.027,0.581,2.713,0.574,3.763-0.017L508.393,460.98z"/>
<path fill="#AFAFF4" d="M388.591,524.595c1.048-0.589,1.067-1.541,0.04-2.124l-36.136-20.46c-1.027-0.58-2.713-0.574-3.763,0.016
	l-2.052,1.154c-1.048,0.589-1.067,1.541-0.041,2.122l36.138,20.461c1.027,0.58,2.713,0.574,3.761-0.015L388.591,524.595
	L388.591,524.595z"/>
<path fill="#AFAFF4" d="M668.329,476.763c1.05-0.591,1.067-1.541,0.04-2.124l-68.776-38.955c-1.028-0.581-2.713-0.574-3.763,0.015
	l-2.054,1.154c-1.048,0.589-1.065,1.541-0.039,2.124l68.778,38.954c1.026,0.58,2.712,0.576,3.762-0.016L668.329,476.763
	L668.329,476.763z"/>
<path fill="#AFAFF4" d="M548.164,540.986c1.05-0.591,1.069-1.541,0.041-2.124l-68.779-38.954c-1.026-0.582-2.713-0.576-3.761,0.014
	l-2.051,1.157c-1.05,0.589-1.069,1.54-0.042,2.122l68.777,38.954c1.027,0.58,2.715,0.574,3.763-0.015L548.164,540.986z"/>
<path fill="#AFAFF4" d="M618.187,509.765c1.048-0.59,1.068-1.541,0.042-2.122l-68.779-38.956c-1.027-0.582-2.713-0.574-3.761,0.015
	l-2.054,1.155c-1.05,0.589-1.067,1.541-0.04,2.122l68.776,38.956c1.028,0.581,2.713,0.574,3.763-0.015L618.187,509.765
	L618.187,509.765z"/>
<path fill="#AFAFF4" d="M492.668,570.645c1.05-0.591,1.067-1.541,0.04-2.122l-68.777-38.956c-1.027-0.58-2.713-0.574-3.761,0.015
	l-2.054,1.154c-1.05,0.589-1.067,1.541-0.041,2.123l68.779,38.955c1.026,0.582,2.713,0.574,3.761-0.015L492.668,570.645z"/>
<path fill="#AFAFF4" d="M666.314,489.364c1.05-0.589,1.067-1.541,0.039-2.122l-92.193-52.216c-1.026-0.582-2.712-0.574-3.762,0.016
	l-2.053,1.153c-1.05,0.591-1.067,1.541-0.04,2.122l92.193,52.217c1.027,0.583,2.713,0.576,3.762-0.015L666.314,489.364z"/>
<path fill="#AFAFF4" d="M546.689,553.517c1.05-0.589,1.067-1.539,0.041-2.122l-92.193-52.217c-1.028-0.581-2.713-0.574-3.763,0.017
	l-2.052,1.153c-1.05,0.589-1.067,1.541-0.041,2.123l92.194,52.216c1.027,0.58,2.713,0.574,3.763-0.015L546.689,553.517z"/>
<path fill="#AFAFF4" d="M610.466,518.815c1.046-0.591,1.065-1.541,0.038-2.124l-92.194-52.215c-1.026-0.583-2.713-0.576-3.761,0.015
	l-2.053,1.154c-1.048,0.589-1.067,1.54-0.039,2.122l92.193,52.215c1.028,0.581,2.713,0.576,3.762-0.015L610.466,518.815z"/>
<path fill="#AFAFF4" d="M490.666,582.43c1.048-0.591,1.067-1.541,0.041-2.124l-92.195-52.215c-1.026-0.58-2.713-0.574-3.762,0.015
	l-2.054,1.153c-1.048,0.59-1.067,1.541-0.039,2.123l92.193,52.216c1.027,0.583,2.713,0.575,3.763-0.015L490.666,582.43z"/>
<path fill="#B3B3F6" d="M710.343,231.732l35.782-20.511l2.951,43.652l-35.781,20.513L710.343,231.732z"/>
<path fill="#CFCFF9" d="M846.515,240.28c11.225-6.363,19.494-19.449,22.135-37.749l23.533-163.089
	c5.282-36.601-13.928-80.284-42.873-97.489L664.217-168.413c-14.321-8.511-28.355-8.958-39.525-2.805v-0.003l-43.203,24.486
	L556.336,27.575l24.675-13.984l-2.341,16.228c-5.281,36.602,13.929,80.285,42.872,97.488l185.095,110.366
	c0.179,0.108,0.357,0.213,0.539,0.318l-3.864,26.773L846.515,240.28L846.515,240.28z"/>
<path fill="#BDBDF7" d="M833.535,32.354l-29.41,203.814l2.52,1.505c0.179,0.108,0.358,0.213,0.538,0.318l-3.863,26.773
	l43.203-24.484c9.645-5.467,17.106-15.898,20.692-30.336l25.733-178.323c0.521-10.217-0.706-20.785-3.38-31.022L833.535,32.354z"/>
<path fill="#DFDFFB" d="M848.981,63.928c5.284-36.602-13.929-80.285-42.872-97.489L621.014-143.928
	c-28.943-17.204-56.732-1.457-62.013,35.145L535.467,54.305c-5.282,36.601,13.929,80.285,42.873,97.488l87.056,53.221l48.283,70.928
	l-3.33-44.21l53.085,30.428c28.945,17.205,56.731,1.457,62.013-35.145L848.981,63.928z"/>
<path fill="#C6C6F8" d="M550.765-51.719l-15.3,106.024c-5.282,36.601,13.929,80.285,42.873,97.488l77.153,47.165l15.396-106.704
	c5.316-36.839-14.02-80.807-43.152-98.125L550.765-51.719L550.765-51.719z"/>
<g>
	<path fill="#7E7EEF" d="M740.443,72.582c-2.936-3.49-6.153-6.857-9.569-10.063c0.861-2.375,1.296-3.782,1.296-3.782l2.239-7.266
		l-14.351-12.922l-2.241,7.266c0,0-0.55,1.786-1.639,4.706c-9.439-6.727-19.481-12.203-28.953-15.906
		c0.188-5.708,0.407-11.225,0.639-16.424c20.38,10.568,43.545,21.703,60.795,27.498l7.416,2.492l-2.473-18.798l-7.414-2.491
		c-16.308-5.478-38.06-15.893-57.458-25.927c0.727-13.055,1.364-21.536,1.364-21.536l0.633-8.493l-14.982-9.469l-0.634,8.493
		c0,0-0.676,9.122-1.433,23.061c-18.173-9.77-31.58-17.604-31.58-17.604l-7.509-4.381l-0.649,17.359l7.509,4.382
		c0,0,13.25,7.719,31.386,17.474c-0.275,6.291-0.529,13.026-0.736,19.986c-33.718-5.525-42.345,26.979-35.338,51.968
		c3.886,13.868,12.121,26.022,23.563,31.772c19.102,9.601,35.035,2.733,46.874-9.91c7.856-8.388,13.918-19.154,18.102-28.093
		c2.796,2.6,5.428,5.343,7.83,8.199c7.292,8.668,12.298,18.481,11.822,28.477c-0.626,13.187-7.582,17.917-15.485,19.135
		c-13.379,2.064-29.629-5.429-29.629-5.429l-7.504-3.447l0.926,18.179l7.504,3.45c0,0,19.888,9.117,36.271,6.59
		c11.939-1.842,21.986-9.595,22.93-29.52C760.777,104.449,752.959,87.458,740.443,72.582z M659.941,96.056
		c-6.504-3.267-9.837-11.835-10.393-19.996c-0.954-13.958,5.849-27.128,22.142-26.928c-0.227,17.578,0.004,35.327,1.14,50.032
		C668.82,99.284,664.53,98.363,659.941,96.056z M695.09,87.109c-2.464,2.631-5.115,5.038-7.968,6.998
		c-0.572-13.027-0.605-27.563-0.354-41.794c7.598,2.707,15.737,6.782,23.505,11.899C706.549,71.758,701.47,80.296,695.09,87.109z"/>
</g>
<path fill="#D5D5FA" d="M592.035,307.529c11.299-6.404,19.62-19.577,22.278-37.997l23.831-165.147
	c5.317-36.839-14.02-80.807-43.151-98.123L410.81-103.454c-14.411-8.568-28.539-9.017-39.78-2.823v-0.003l-43.485,24.645
	L302.083,94.808l24.834-14.076l-2.356,16.334c-5.316,36.84,14.02,80.808,43.152,98.123l117.318,69.732l-20.253,29.649l65.498-2.756
	l21.619,13.092c0.18,0.108,0.363,0.213,0.543,0.318l-3.889,26.948L592.035,307.529L592.035,307.529z"/>
<path fill="#CFCFF9" d="M579.112,97.252l-29.747,206.14l2.536,1.516c0.18,0.108,0.362,0.213,0.543,0.318l-3.888,26.948
	l43.484-24.644c9.707-5.502,17.218-16.001,20.826-30.534L638.91,96.513c0.526-10.284-0.71-20.921-3.4-31.224L579.112,97.252
	L579.112,97.252z"/>
<path fill="#E6E6FC" d="M594.659,129.031c5.317-36.84-14.019-80.808-43.151-98.124L367.323-78.81
	c-29.132-17.315-57.101-1.466-62.415,35.375l-23.833,165.147c-5.314,36.839,14.02,80.808,43.154,98.123l14.313,8.508l-20.256,29.647
	l65.5-2.754l124.623,74.316c29.134,17.315,57.102,1.466,62.419-35.375L594.659,129.031L594.659,129.031z"/>
<g transform="matrix(0.873851,0.486193,-0.0197448,1.13337,-2241.13,9729.76)">
	
		<text transform="matrix(0.8822 0 0 0.8822 2773.3979 -9631.999)" fill="#7E7EEF" font-family="'AvenirNextLTPro-Bold'" font-size="199.1931px">A</text>
</g>
<g>
	<path fill="#A8A8F3" d="M698.027,1252.788c4.699,2.716,11.82,3.009,15.889,0.661l334.889-193.349
		c4.069-2.351,3.559-6.46-1.141-9.173L825.339,922.566c-4.7-2.713-11.818-3.007-15.891-0.657L474.56,1115.256
		c-4.069,2.351-3.559,6.461,1.141,9.174L698.027,1252.788L698.027,1252.788z"/>
</g>
<g>
	<path fill="#BE8EFF" d="M1047.904,1029.831c-0.081-0.05-0.162-0.098-0.246-0.146c0,0-43.851-25.317-57.576-33.242
		c-6.985-4.033-1.57-13.315-1.882-19.516v-7.213h-5.03v1.108l-89.887-51.897c-9.554-5.513-26.238,6.482-36.031,0.829
		c-13.901-8.027-31.919-18.429-31.919-18.429c-4.699-2.713-11.818-3.009-15.889-0.659l-333.01,192.264l-4.584-2.647v6.581
		c-0.008,0.18-0.007,0.359,0.007,0.538c-0.327,1.972,0.983,4.138,3.838,5.787l222.327,128.361
		c4.698,2.713,11.818,3.007,15.888,0.657l334.889-193.35c1.899-1.094,2.799-2.574,2.744-4.116c0.005-0.142,0.002-0.284-0.007-0.427
		l0.008-0.005v-6.581L1047.904,1029.831L1047.904,1029.831z"/>
	<path fill="#B37BFF" d="M518.169,1073.453l184.6,106.581v52.62c-1.861-0.418-3.644-1.074-5.191-1.968l-221.397-127.824
		c-2.966-1.711-4.435-3.925-4.325-5.998v-6.581l8.39,4.845v0.22L518.169,1073.453z"/>
	<path fill="#9647FF" d="M698.027,1224.331c4.699,2.713,11.82,3.007,15.889,0.657l334.889-193.35
		c4.069-2.348,3.559-6.459-1.141-9.172c0,0-43.851-25.317-57.579-33.242c-9.222-5.324,3.172-19.8-4.538-24.25
		c-16.19-9.347-76.071-43.919-92.261-53.267c-9.552-5.513-26.238,6.482-36.029,0.829c-13.901-8.027-31.919-18.429-31.919-18.429
		c-4.7-2.713-11.818-3.009-15.891-0.658L474.56,1086.797c-4.069,2.35-3.559,6.46,1.141,9.172L698.027,1224.331L698.027,1224.331z"/>
</g>
<g>
	<path fill="#7E1CFF" d="M709.307,1195.61c3.725,2.151,9.368,2.386,12.595,0.522l265.456-153.26c3.226-1.865,2.82-5.122-0.905-7.271
		l-176.23-101.748c-3.724-2.15-9.368-2.385-12.595-0.522l-265.455,153.262c-3.227,1.862-2.822,5.121,0.904,7.27L709.307,1195.61z"/>
</g>
<g>
	<path fill="#D7D7F9" d="M989.522,1029.672c0.098,1.401-0.696,2.752-2.417,3.747l-264.128,152.494
		c-3.593,2.076-9.88,1.814-14.03-0.583l-175.495-101.321c-2.351-1.357-3.516-3.111-3.43-4.754l0,0v-5.217l6.652,3.84v0.175
		l259.899-150.054c3.593-2.073,9.88-1.813,14.03,0.583l172.489,99.588l6.438-3.718v5.217L989.522,1029.672L989.522,1029.672z"/>
	<path fill="#CACAF8" d="M566.74,1060.698l146.327,84.482v41.712c-1.474-0.33-2.887-0.852-4.116-1.56l-175.495-101.322
		c-2.35-1.358-3.514-3.112-3.428-4.755v-5.217l6.651,3.84v0.174L566.74,1060.698z"/>
	<path fill="#ECECFC" d="M709.307,1180.3c3.725,2.15,9.368,2.386,12.595,0.521l265.456-153.26c3.226-1.863,2.82-5.121-0.905-7.272
		l-176.23-101.747c-3.724-2.149-9.368-2.386-12.595-0.521l-265.455,153.261c-3.227,1.862-2.822,5.12,0.904,7.271L709.307,1180.3z"/>
	<g>
		<path fill="#AFAFF4" d="M904.65,1010.522c0.976-0.577,2.548-0.587,3.51-0.021l17.589,10.35c0.962,0.565,0.95,1.495-0.026,2.072
			l-1.907,1.131c-0.975,0.578-2.548,0.587-3.509,0.023l-17.59-10.351c-0.962-0.565-0.95-1.493,0.026-2.072L904.65,1010.522z"/>
		<path fill="#AFAFF4" d="M798.525,1076.762c0.974-0.577,2.548-0.587,3.508-0.022l17.591,10.35c0.962,0.567,0.95,1.495-0.026,2.072
			l-1.909,1.132c-0.975,0.578-2.547,0.587-3.509,0.022l-17.59-10.35c-0.961-0.566-0.95-1.494,0.025-2.073L798.525,1076.762
			L798.525,1076.762z"/>
		<path fill="#AFAFF4" d="M855.5,1000.785c0.969-0.586,2.54-0.608,3.504-0.049l50.659,29.479c0.966,0.56,0.963,1.49-0.008,2.076
			l-1.897,1.146c-0.971,0.586-2.541,0.609-3.505,0.051l-50.659-29.48c-0.966-0.557-0.96-1.487,0.009-2.073L855.5,1000.785z"/>
		<path fill="#AFAFF4" d="M748.844,1068.207c0.976-0.577,2.548-0.586,3.509-0.02l50.473,29.852c0.96,0.567,0.948,1.495-0.028,2.072
			l-1.909,1.13c-0.975,0.578-2.547,0.588-3.509,0.023l-50.472-29.854c-0.961-0.565-0.949-1.495,0.026-2.072L748.844,1068.207
			L748.844,1068.207z"/>
		<path fill="#AFAFF4" d="M807.102,1031.226c0.974-0.578,2.548-0.589,3.509-0.022l50.482,29.833c0.962,0.565,0.95,1.493-0.026,2.072
			l-1.907,1.131c-0.974,0.577-2.548,0.587-3.509,0.022l-50.482-29.832c-0.963-0.566-0.951-1.496,0.024-2.073L807.102,1031.226z"/>
		<path fill="#AFAFF4" d="M801.8,969.591c0.971-0.588,2.541-0.608,3.505-0.049l45.08,26.131c0.964,0.561,0.96,1.49-0.01,2.076
			l-1.897,1.148c-0.969,0.586-2.539,0.608-3.505,0.048l-45.078-26.132c-0.966-0.56-0.96-1.49,0.008-2.076L801.8,969.591z"/>
		<path fill="#AFAFF4" d="M693.018,1033.411c0.974-0.579,2.546-0.588,3.508-0.021l44.913,26.465
			c0.961,0.565,0.951,1.495-0.026,2.072l-1.911,1.13c-0.974,0.577-2.547,0.588-3.509,0.021l-44.913-26.465
			c-0.96-0.567-0.948-1.495,0.027-2.072L693.018,1033.411L693.018,1033.411z"/>
		<path fill="#AFAFF4" d="M751.153,998.343c0.974-0.579,2.547-0.588,3.509-0.024l44.921,26.45c0.96,0.565,0.95,1.493-0.026,2.072
			l-1.907,1.132c-0.976,0.577-2.548,0.587-3.509,0.02l-44.923-26.448c-0.963-0.565-0.95-1.494,0.026-2.072L751.153,998.343z"/>
		<path fill="#AFAFF4" d="M847.855,1010.659c0.976-0.579,2.548-0.589,3.509-0.023l46.437,27.347c0.96,0.565,0.95,1.495-0.026,2.072
			l-1.909,1.132c-0.974,0.577-2.548,0.587-3.509,0.022l-46.435-27.346c-0.96-0.567-0.95-1.495,0.026-2.075L847.855,1010.659
			L847.855,1010.659z"/>
		<path fill="#AFAFF4" d="M742.089,1077.089c0.976-0.577,2.548-0.587,3.51-0.022l46.434,27.348c0.96,0.565,0.95,1.495-0.024,2.072
			l-1.909,1.131c-0.976,0.578-2.547,0.589-3.509,0.022l-46.435-27.347c-0.963-0.566-0.95-1.494,0.026-2.072L742.089,1077.089
			L742.089,1077.089z"/>
		<path fill="#AFAFF4" d="M798.839,1041.246c0.976-0.579,2.548-0.588,3.509-0.022l46.435,27.346c0.962,0.567,0.95,1.495-0.024,2.072
			l-1.909,1.132c-0.976,0.577-2.548,0.588-3.509,0.022l-46.435-27.348c-0.962-0.565-0.95-1.494,0.026-2.072L798.839,1041.246z"/>
		<path fill="#AFAFF4" d="M849.354,1024.888c0.976-0.578,2.546-0.588,3.508-0.021l33.825,19.911
			c0.961,0.567,0.949,1.495-0.025,2.075l-1.909,1.13c-0.976,0.579-2.547,0.588-3.509,0.023l-33.823-19.912
			c-0.962-0.567-0.95-1.495,0.024-2.073L849.354,1024.888L849.354,1024.888z"/>
		<path fill="#AFAFF4" d="M742.067,1092.456c0.976-0.577,2.548-0.588,3.509-0.022l33.825,19.914c0.96,0.564,0.95,1.494-0.026,2.072
			l-1.909,1.131c-0.974,0.577-2.546,0.587-3.507,0.022l-33.825-19.913c-0.962-0.567-0.95-1.495,0.026-2.072L742.067,1092.456z"/>
		<path fill="#AFAFF4" d="M800.664,1055.655c0.975-0.577,2.547-0.588,3.509-0.021l33.823,19.912c0.963,0.567,0.95,1.495-0.026,2.072
			l-1.907,1.132c-0.976,0.577-2.548,0.587-3.509,0.022l-33.824-19.913c-0.961-0.565-0.951-1.495,0.025-2.074L800.664,1055.655
			L800.664,1055.655z"/>
		<path fill="#AFAFF4" d="M774.58,967.531c0.976-0.577,2.546-0.588,3.509-0.022l64.396,37.898c0.96,0.567,0.95,1.495-0.024,2.074
			l-1.909,1.13c-0.976,0.579-2.548,0.589-3.509,0.022l-64.398-37.898c-0.961-0.567-0.949-1.495,0.026-2.075l1.907-1.13H774.58z"/>
		<path fill="#AFAFF4" d="M668.408,1033.747c0.974-0.577,2.546-0.587,3.507-0.021l64.398,37.899c0.961,0.567,0.95,1.495-0.026,2.074
			l-1.907,1.132c-0.976,0.577-2.548,0.587-3.509,0.02l-64.399-37.898c-0.96-0.567-0.95-1.495,0.026-2.074L668.408,1033.747
			L668.408,1033.747z"/>
		<path fill="#AFAFF4" d="M720.014,995.156c0.976-0.578,2.547-0.588,3.509-0.023l64.396,37.899c0.963,0.567,0.95,1.496-0.024,2.075
			l-1.909,1.132c-0.976,0.577-2.547,0.587-3.509,0.02l-64.397-37.898c-0.962-0.567-0.95-1.495,0.024-2.072l1.909-1.131V995.156z"/>
		<path fill="#AFAFF4" d="M753.74,968.645c0.976-0.577,2.548-0.588,3.509-0.023l86.322,50.805c0.96,0.564,0.95,1.494-0.026,2.072
			l-1.909,1.131c-0.975,0.577-2.548,0.587-3.507,0.022l-86.322-50.803c-0.963-0.567-0.95-1.495,0.026-2.072L753.74,968.645
			L753.74,968.645z"/>
		<path fill="#AFAFF4" d="M647.694,1034.558c0.974-0.577,2.547-0.588,3.509-0.021l86.32,50.802c0.962,0.567,0.951,1.495-0.024,2.075
			l-1.911,1.13c-0.974,0.579-2.546,0.589-3.507,0.022l-86.322-50.803c-0.96-0.565-0.95-1.495,0.026-2.072L647.694,1034.558
			L647.694,1034.558z"/>
		<path fill="#AFAFF4" d="M705.051,999.412c0.976-0.579,2.548-0.587,3.509-0.022l86.321,50.803c0.961,0.566,0.95,1.495-0.025,2.072
			l-1.907,1.132c-0.976,0.579-2.548,0.588-3.509,0.023l-86.32-50.806c-0.963-0.565-0.951-1.494,0.024-2.071L705.051,999.412z"/>
	</g>
</g>
<path fill="#CACAF8" d="M834.267,932.43l5.864,3.385c-4.117,4.998-2.594,11.165,4.568,15.299l78.348,45.234l0.084,0.052l0.038,0.018
	c7.164,4.078,17.771,4.932,26.378,2.568l5.865,3.386c-11.925,4.067-27.543,3.166-37.834-2.7l-0.142-0.082l-78.348-45.234
	C828.796,948.413,827.191,939.346,834.267,932.43L834.267,932.43z"/>
<path fill="#FFFFFF" d="M917.575,994.898l-0.143-0.082l-78.347-45.234c-12.193-7.039-12.193-18.47,0-25.51
	c1.548-0.895,4.062-0.895,5.612,0c1.549,0.894,1.549,2.346,0,3.241c-9.096,5.252-9.096,13.777,0,19.028l78.348,45.234l0.083,0.052
	l0.031,0.014c0.002,0.001,0.005,0.003,0.007,0.005c9.11,5.181,23.785,5.156,32.84-0.071c1.548-0.893,4.062-0.893,5.612,0
	c1.55,0.894,1.55,2.347,0,3.241C949.471,1001.828,929.778,1001.856,917.575,994.898z"/>
<path fill="#A8A8F3" d="M1430.351,801.153L991.785,548.052L669.199,735.27l439.267,252.86L1430.351,801.153z"/>
<path fill="#6A17FF" d="M1430.328,751.259l-407.15-235.063l-301.659,174.18l407.151,234.992L1430.328,751.259L1430.328,751.259z"/>
<path fill="#E2B779" d="M1100.49,890.719l-0.274,81.964h-0.034v10.655L1100.49,890.719L1100.49,890.719z"/>
<path fill="#7528FF" d="M1120.776,832.122L713.769,597.045l-0.122,113.269l406.735,235.01L1120.776,832.122L1120.776,832.122z"/>
<path fill="#6A17FF" d="M1430.183,653.536l-407.151-235.064L713.627,597.126l407.148,234.992L1430.183,653.536L1430.183,653.536z"/>
<path fill="#F1F1F1" d="M1394.574,684.53l0.231,67.327l-272.342,157.273l0.317-67.808L1394.574,684.53z"/>
<path fill="#D89BFF" d="M1430.328,751.27l0.024,15.079L1120.4,945.334l0.524-15.556L1430.328,751.27z"/>
<path fill="#D89BFF" d="M1430.183,653.544l0.024,16.516l-298.914,172.617l0.522-16.993L1430.183,653.544z"/>
<path fill="#D89BFF" d="M1135.331,823.804l0.153,112.686l-15.106,8.724l0.394-113.165L1135.331,823.804L1135.331,823.804z"/>
<path fill="#A10AFF" d="M1338.601,657.894L931.45,422.831l-301.659,174.18l407.151,234.992L1338.601,657.894z"/>
<path fill="#E2B779" d="M1008.773,797.347l-0.275,81.962h-0.032v10.655L1008.773,797.347L1008.773,797.347z"/>
<path fill="#8E4FFF" d="M1029.06,738.751L622.054,503.676l-0.122,113.269l406.733,235.007L1029.06,738.751L1029.06,738.751z"/>
<path fill="#6A17FF" d="M1338.467,560.166L931.316,325.103L621.909,503.755l407.151,234.993L1338.467,560.166z"/>
<path fill="#F1F1F1" d="M1302.857,591.157l0.231,67.33l-272.34,157.272l0.316-67.807L1302.857,591.157z"/>
<path fill="#D89BFF" d="M1338.613,657.894l0.022,15.08L1028.683,851.96l0.524-15.557L1338.613,657.894L1338.613,657.894z"/>
<path fill="#D89BFF" d="M1338.467,560.173l0.024,16.518l-298.913,172.617l0.521-16.997L1338.467,560.173z"/>
<path fill="#D89BFF" d="M1043.616,730.432l0.153,112.689l-15.107,8.724l0.394-113.167L1043.616,730.432z"/>
<path fill="#A10AFF" d="M1368.355,505.003L961.204,269.94L659.545,444.12l407.151,234.995L1368.355,505.003L1368.355,505.003z"/>
<path fill="#8E4FFF" d="M1058.802,585.857L651.795,350.783l-0.122,113.268l406.735,235.008L1058.802,585.857z"/>
<path fill="#C077FF" d="M1368.209,407.275l-407.15-235.063L651.653,350.865l407.149,234.992L1368.209,407.275L1368.209,407.275z"/>
<path fill="#F1F1F1" d="M1332.613,438.268l0.229,67.328l-272.34,157.272l0.316-67.808l271.793-156.793H1332.613z"/>
<path fill="#D89BFF" d="M1368.355,505.005l0.024,15.078l-309.953,178.988l0.524-15.56L1368.355,505.005L1368.355,505.005z"/>
<path fill="#D89BFF" d="M1368.209,407.283l0.026,16.517L1069.32,596.418l0.522-16.995L1368.209,407.283z"/>
<path fill="#D89BFF" d="M1073.358,577.546l0.155,112.688l-15.107,8.721l0.391-113.165L1073.358,577.546z"/>
<path fill="#A10AFF" d="M1123.849,384.337L904.399,257.64l-162.59,93.882l219.45,126.659L1123.849,384.337z"/>
<path fill="#8E4FFF" d="M957.01,427.919L737.639,301.215l-0.065,61.051l219.226,126.666L957.01,427.919z"/>
<path fill="#CE95FF" d="M1123.771,331.664L904.32,204.968l-166.766,96.291l219.449,126.66L1123.771,331.664L1123.771,331.664z"/>
<path fill="#F1F1F1" d="M1104.588,348.368l0.123,36.29l-146.789,84.769l0.17-36.548L1104.588,348.368L1104.588,348.368z"/>
<path fill="#E3B6FF" d="M1123.849,384.339l0.012,8.127l-167.061,96.472l0.281-8.385L1123.849,384.339L1123.849,384.339z"/>
<path fill="#E3B6FF" d="M1123.771,331.668l0.013,8.902l-161.111,93.041l0.28-9.162L1123.771,331.668z"/>
<path fill="#E3B6FF" d="M964.857,423.437l0.083,60.738l-8.145,4.703l0.213-60.996L964.857,423.437z"/>
<linearGradient id="SVGID_3_" gradientUnits="userSpaceOnUse" x1="19.1523" y1="1081.552" x2="20.9173" y2="1081.5487" gradientTransform="matrix(1293.9719 0 10.8292 -2777.1614 21282.4395 3004509)">
	<stop  offset="0" style="stop-color:#00148B"/>
	<stop  offset="1" style="stop-color:#000120"/>
</linearGradient>
<path fill="url(#SVGID_3_)" d="M656.532,385.012c-47.372,169.184-94.735,338.374-142.105,507.574
	c-3.814,13.634,17.283,19.402,21.097,5.805c47.353-169.182,94.733-338.365,142.097-507.565
	C681.435,377.203,660.338,371.416,656.532,385.012z"/>
<linearGradient id="SVGID_4_" gradientUnits="userSpaceOnUse" x1="19.1516" y1="1081.5317" x2="20.9167" y2="1081.5286" gradientTransform="matrix(1293.9719 0 10.8292 -2777.1614 21282.4395 3004509)">
	<stop  offset="0" style="stop-color:#00148B"/>
	<stop  offset="1" style="stop-color:#000120"/>
</linearGradient>
<path fill="url(#SVGID_4_)" d="M766.923,441.505C719.57,610.688,672.19,779.888,624.829,949.071
	c-3.816,13.641,17.293,19.427,21.089,5.811C693.289,785.7,740.65,616.518,788.022,447.328
	C791.837,433.676,770.74,427.891,766.923,441.505L766.923,441.505z"/>
<linearGradient id="SVGID_5_" gradientUnits="userSpaceOnUse" x1="18.7213" y1="1081.6067" x2="20.4691" y2="1081.6035" gradientTransform="matrix(1293.9719 0 10.8292 -2777.1614 21282.4395 3004509)">
	<stop  offset="0" style="stop-color:#00148B"/>
	<stop  offset="1" style="stop-color:#000120"/>
</linearGradient>
<path fill="url(#SVGID_5_)" d="M641.625,468.584c35.914,21.989,71.827,43.988,107.73,65.969
	c11.894,7.291,22.805-11.385,10.973-18.64c-35.912-21.998-71.824-43.997-107.728-65.979
	C640.715,442.653,629.795,461.327,641.625,468.584L641.625,468.584z"/>
<linearGradient id="SVGID_6_" gradientUnits="userSpaceOnUse" x1="18.9547" y1="1081.5757" x2="20.7118" y2="1081.5725" gradientTransform="matrix(1293.9719 0 10.8292 -2777.1614 21282.4395 3004509)">
	<stop  offset="0" style="stop-color:#00148B"/>
	<stop  offset="1" style="stop-color:#000120"/>
</linearGradient>
<path fill="url(#SVGID_6_)" d="M620.866,554.007c33.622,21.604,67.253,43.236,100.872,64.84
	c11.733,7.544,22.625-11.141,10.974-18.638c-33.629-21.604-67.251-43.236-100.873-64.842
	C620.108,527.825,609.215,546.518,620.866,554.007L620.866,554.007z"/>
<linearGradient id="SVGID_7_" gradientUnits="userSpaceOnUse" x1="19.1807" y1="1081.5419" x2="20.9468" y2="1081.5387" gradientTransform="matrix(1293.9719 0 10.8292 -2777.1614 21282.4395 3004509)">
	<stop  offset="0" style="stop-color:#00148B"/>
	<stop  offset="1" style="stop-color:#000120"/>
</linearGradient>
<path fill="url(#SVGID_7_)" d="M599.083,649.536c33.342,19.742,66.701,39.472,100.053,59.214
	c11.983,7.103,22.912-11.572,10.965-18.638c-33.351-19.742-66.703-39.474-100.055-59.216
	C598.054,623.792,587.126,642.467,599.083,649.536z"/>
<linearGradient id="SVGID_8_" gradientUnits="userSpaceOnUse" x1="19.3015" y1="1081.5149" x2="21.0725" y2="1081.5117" gradientTransform="matrix(1293.9719 0 10.8292 -2777.1614 21282.4395 3004509)">
	<stop  offset="0" style="stop-color:#00148B"/>
	<stop  offset="1" style="stop-color:#000120"/>
</linearGradient>
<path fill="url(#SVGID_8_)" d="M574.057,721.661c33.544,21.14,67.094,42.261,100.637,63.382
	c11.796,7.443,22.697-11.25,10.965-18.639c-33.543-21.121-67.086-42.261-100.627-63.381c-11.795-7.416-22.706,11.266-10.975,18.64
	V721.661z"/>
<linearGradient id="SVGID_9_" gradientUnits="userSpaceOnUse" x1="18.9056" y1="1081.4845" x2="20.6607" y2="1081.4812" gradientTransform="matrix(1293.9719 0 10.8292 -2777.1614 21282.4395 3004509)">
	<stop  offset="0" style="stop-color:#00148B"/>
	<stop  offset="1" style="stop-color:#000120"/>
</linearGradient>
<path fill="url(#SVGID_9_)" d="M551.789,809.946c33.119,19.937,66.244,39.876,99.362,59.815
	c11.939,7.182,22.858-11.483,10.973-18.64c-33.127-19.94-66.243-39.877-99.369-59.815
	C550.816,784.113,539.895,802.789,551.789,809.946z"/>
<linearGradient id="SVGID_10_" gradientUnits="userSpaceOnUse" x1="6.2246" y1="1083.5474" x2="7.9833" y2="1083.5505" gradientTransform="matrix(-83.9598 21.7047 -39.9232 -156.639 44522.1875 169998.3906)">
	<stop  offset="0" style="stop-color:#D0E8FF"/>
	<stop  offset="1" style="stop-color:#40A2FF"/>
</linearGradient>
<path fill="url(#SVGID_10_)" d="M617.523,434.451c0,0-6.299-32.809,11.25-44.794c6.199-4.232,18.742-2.868,27.49,9.827
	c21.926,31.814,26.605,41.59,26.605,41.59l44.806-42.703c0,0,11.527,2.562,13.483,10.389c0,0-39.786,53.849-61.838,62.01
	C679.317,470.77,636.494,471.122,617.523,434.451z"/>
<path fill="#F0B184" d="M679.316,470.77l3.548-29.696l44.808-42.703c0,0,11.525,2.562,13.483,10.389
	C741.156,408.759,701.37,462.608,679.316,470.77z"/>
<path fill="#F0B184" d="M741.211,408.778c0,0,11.351-7.65,15.064-12.509c3.706-4.894,4.947-9.122,5.105-10.796
	c0.15-1.668-5.117,3.199-6.763,4.832c-1.653,1.619-7.277,2.5-1.03-10.435c6.269-12.927-10.045-4.914-11.227-4.716
	c-1.222,0.191-9.956,7.675-14.69,23.217C727.671,398.371,735.925,400.003,741.211,408.778z"/>
<path fill="#F0B184" d="M657.286,441.424c0,0-5.59-20.202-9.554-35.576c-2.952-11.452,10.221-2.016,20.937,2.696
	c10.377,4.56,12.851-2.184,17.63-0.399c21.939,8.198,41.387,11.019,53.755,11.811c8.356,0.536,13.482,0.142,13.965-0.141
	c31.177-18.423,56.463-41.545,56.463-41.545s13.336,7.641,10.038,11.595c-22.471,26.941-33.132,48.148-59.396,62.762
	c0,0-40.306,6.21-54.825,7.61c-5.585,0.54-26.302,4.865-29.048,35.634C682.867,441.074,660.123,455.222,657.286,441.424
	L657.286,441.424z"/>
<path fill="#182647" d="M543.83,802.413c4.293-18.089,34.533,10.352,39.16,16.904c2.105,2.983-13.837,12.673-24.372,15.456
	c-4.789,1.263-18.585-5.078-19.764-6.135C535.804,825.904,540.015,818.487,543.83,802.413z"/>
<path fill="#5172C4" d="M556.978,825.627c2.007,4.276,10.941,1.621,17.458-2.671c5.294-3.486,5.161-4.576,3.588-9.183
	c1.541,0.052,4.096,4.315,4.964,5.543c2.105,2.984-13.837,12.673-24.372,15.456c-4.789,1.265-18.585-5.076-19.764-6.134
	c-1.524-1.369-1.234-3.906-0.085-8.111C539.915,816.32,555.704,822.909,556.978,825.627L556.978,825.627z"/>
<path fill="#282828" d="M606.187,853.692c0,0-2.129,7.03-5.165,19.656c-1.521,6.321,19.039,10.17,25.874,9.682
	c43.667-3.126,44.124-9.296,41.772-12.358c-6.878-8.953-24.206-21.987-24.206-21.987L606.187,853.692L606.187,853.692z"/>
<path fill="#182647" d="M606.187,853.692c0,0-2.129,7.03-5.165,19.656c-1.521,6.321,19.039,10.17,25.874,9.682
	c43.667-3.126,44.124-9.296,41.772-12.358c-6.878-8.953-24.206-21.987-24.206-21.987L606.187,853.692L606.187,853.692z"/>
<path fill="#5172C4" d="M626.181,876.995c0,0-21.192-19.346-23.07-12.042c-0.627,2.433-1.33,5.241-2.09,8.397
	c-1.519,6.32,19.041,10.17,25.876,9.682c43.667-3.126,44.124-9.295,41.772-12.358c-1.804-2.348-3.527-6.249-7.067-7.579
	c3.882,6.226-2.112,9.076-2.112,9.076L626.181,876.995L626.181,876.995z"/>
<linearGradient id="SVGID_11_" gradientUnits="userSpaceOnUse" x1="0.7166" y1="1086.7324" x2="2.4764" y2="1086.7324" gradientTransform="matrix(-35.733 106.0064 -106.0064 -35.733 115820.2266 39408.582)">
	<stop  offset="0" style="stop-color:#260096"/>
	<stop  offset="0.57" style="stop-color:#8800DF"/>
	<stop  offset="1" style="stop-color:#B300FF"/>
</linearGradient>
<path fill="url(#SVGID_11_)" d="M595.312,551.336c0,0-9.241,89.603-11.487,101.485c-2.249,11.898-21.058,88.094-40.722,152.426
	c0,0,27.924,16.627,30.955,0.004c1.82-9.975,41.332-124.442,48.509-141.143c10.853-25.395,24.19-106.692,24.19-106.692
	L595.312,551.336z"/>
<linearGradient id="SVGID_12_" gradientUnits="userSpaceOnUse" x1="0.7164" y1="1086.2113" x2="2.4757" y2="1086.2113" gradientTransform="matrix(-35.733 106.0064 -106.0064 -35.733 115820.2266 39408.582)">
	<stop  offset="0" style="stop-color:#260096"/>
	<stop  offset="0.57" style="stop-color:#8800DF"/>
	<stop  offset="1" style="stop-color:#B300FF"/>
</linearGradient>
<path fill="url(#SVGID_12_)" d="M632.563,557.066c0,0-3.067,182.182-26.381,296.63c0,0,30.105,14.583,38.277-5.009
	c0,0,21.26-118.271,26.982-142.729c5.776-24.498,26.276-100.75,24.055-142.269C693.265,522.172,632.563,557.066,632.563,557.066
	L632.563,557.066z"/>
<linearGradient id="SVGID_13_" gradientUnits="userSpaceOnUse" x1="-12.4732" y1="1080.8063" x2="-10.7144" y2="1080.8044" gradientTransform="matrix(52.1943 9.6712 32.9137 -174.0937 -34362.8867 188970.375)">
	<stop  offset="0" style="stop-color:#260096"/>
	<stop  offset="0.57" style="stop-color:#8800DF"/>
	<stop  offset="1" style="stop-color:#B300FF"/>
</linearGradient>
<path fill="url(#SVGID_13_)" d="M607.886,610.456c-3.63,22.323-8.77,47.312-15.554,65.549
	c-14.127,37.882-24.192,114.841-31.596,136.057c-12.82-2.377-22.839-10.248-22.839-10.248c10.947-26.58,17.531-64.941,30.62-119.736
	c11.7-48.976-0.153-82.538,33.731-144.299l12.482,19.752c0,0-0.141,1.584-0.431,4.422l52.298,20.888
	c0,0-1.062,59.656-18.319,134.952c-13.372,58.279-25.417,116.915-30.101,139.99c-11.948-2.07-20.647-9.095-20.647-9.095
	c10.041-44.392,19.3-83.341,21.552-125.378c2.191-40.875,6.586-76.477,4.131-80.864
	C615.548,628.732,610.678,618.629,607.886,610.456L607.886,610.456z"/>
<linearGradient id="SVGID_14_" gradientUnits="userSpaceOnUse" x1="8.1988" y1="1081.5643" x2="9.958" y2="1081.5684" gradientTransform="matrix(-79.9782 -14.8193 24.1161 -127.5603 -24688.9355 138608.5156)">
	<stop  offset="0" style="stop-color:#D0E8FF"/>
	<stop  offset="1" style="stop-color:#40A2FF"/>
</linearGradient>
<path fill="url(#SVGID_14_)" d="M641.041,388.085c0,0-20.22,10.104-23.537,49.324c-2.949,34.864-31.297,109.213-34.332,137.049
	c0,0-4.852,22.485,68.533,47.298c0,0,45.971,14.195,43.959-20.609c-2.031-34.821,7.121-110.345,10.805-122.905
	c3.719-12.579,21.687-23.118-3.608-52.944C678.548,396.63,661.733,390.594,641.041,388.085L641.041,388.085z"/>
<path fill="#E7A477" d="M656.138,364.793c0,0-0.935,13.027-6.246,22.778c-0.825,1.512-6.866,6.297,1.839,11.791
	c5.253,3.315,26.848,4.962,36.165,10.199c0.841,0.473-12.633-6.127,1.495-34.242C694.155,365.835,656.138,364.793,656.138,364.793z"
	/>
<path fill="#F0B184" d="M706.977,327.334c0,0,0.424,52.79-2.709,54.847c-5.234,3.46-21.981,10.651-33.514,3.835
	c-13.912-8.262-25.762-31.742-15.881-49.04C664.788,319.664,687.335,308.086,706.977,327.334z"/>
<path fill="#E7A477" d="M675.354,379.077c3.548,2.787,5.052,0.345,5.598,1.717c4.555,11.413,26.092-0.436,23.312,1.387
	c-5.234,3.46-21.98,10.651-33.515,3.835C656.837,377.754,666.578,372.185,675.354,379.077L675.354,379.077z"/>
<path fill="#E7A477" d="M706.898,348.451c0.022-1.602,3.991,8.66,3.871,11.691c-0.1,2.466-1.679,2.54-4.284,4.289
	C706.697,359.332,706.824,353.727,706.898,348.451L706.898,348.451z"/>
<path fill="#3C3936" d="M706.784,321.715c0,0,5.473,13.748-8.812,17.74c-8.413,2.342-10.981,14.179-10.218,21.678
	c0.192,1.878,2.093,7.299,1.601,8.189c-0.466,0.845-4.787,2.885-5.117,2.526c-2.416-2.63-3.265-9.249-8.332-7.753
	c-0.641,0.189-1.26,0.49-1.82,0.856c-4.968,3.232-1.385,10.928,1.485,14.394c0.728,0.881,3.695-0.566,3.419,1.254
	c-0.192,1.285-1.24,2.507-2.027,3.5c-5.327,6.717-17.264,2.689-22.333-2.577c-4.053-4.215-5.318-6.605-9.116-19.879
	c-5.54-19.344-1.978-40.684,21.087-48.143C689.664,306.034,707.197,315.841,706.784,321.715L706.784,321.715z"/>
<linearGradient id="SVGID_15_" gradientUnits="userSpaceOnUse" x1="1.5074" y1="1075.3993" x2="3.2669" y2="1075.3993" gradientTransform="matrix(13.4074 -123.7349 123.7349 13.4074 -132408.9688 -13576.874)">
	<stop  offset="0" style="stop-color:#D0E8FF"/>
	<stop  offset="1" style="stop-color:#40A2FF"/>
</linearGradient>
<path fill="url(#SVGID_15_)" d="M699.018,606.799c-2.029-34.822,3.775-115.997,7.459-128.557
	c3.694-12.445,28.922-34.45-11.696-59.26c-11.98,4.55-18.815,13.389-14.489,38.799c4.084,24.003-13.406,137.584-16.597,166.383
	C682.06,628.134,699.636,617.486,699.018,606.799L699.018,606.799z"/>
<linearGradient id="SVGID_16_" gradientUnits="userSpaceOnUse" x1="8.199" y1="1082.0283" x2="9.9579" y2="1082.0323" gradientTransform="matrix(-79.9782 -14.8193 24.1161 -127.5603 -24688.9355 138608.5156)">
	<stop  offset="0" style="stop-color:#D0E8FF"/>
	<stop  offset="1" style="stop-color:#40A2FF"/>
</linearGradient>
<path fill="url(#SVGID_16_)" d="M657.286,441.424c0,0-5.59-20.202-9.554-35.576c-2.952-11.452,10.221-2.016,20.937,2.696
	c10.377,4.56,12.851-2.184,17.63-0.399c11.122,4.155,35.986,9.871,58.706,7.725c3.246-0.306,8.502,43.98,4.418,44.61
	c-17.695,2.732-36.23-0.908-43.124-0.242c-5.585,0.54-26.302,4.865-29.048,35.634C682.867,441.074,660.123,455.222,657.286,441.424
	L657.286,441.424z"/>
<path fill="#F0B184" d="M808.408,380.366c0,0,4.576-11.403,7.868-15.85c7.904-10.677,12.787-12.543,13.694-11.336
	c0.888,1.182-3.036,6.568-4.096,8.361c-1.086,1.773,7.115-6.679,8.896-5.604c2.206,1.33,6.191,3.122,6.976,5.832
	c2.643,9.129-11.063,22.621-21.226,28.096C820.52,389.867,816.573,382.224,808.408,380.366z"/>
<path fill="#A8A8F3" d="M1319.88,1082.988c-17.303,9.82-45.28,9.612-62.434-0.464l-56.64-33.389
	c-17.155-10.077-17.035-26.229,0.268-36.049l53.536-30.377c17.303-9.821,45.278-9.613,62.434,0.462l56.638,33.392
	c17.156,10.076,17.036,26.228-0.268,36.047L1319.88,1082.988z"/>
<path fill="#C0C0F7" d="M1386.38,1018.843c-0.051,6.526-4.406,13.018-13.057,17.927l-53.536,30.38
	c-17.303,9.82-45.279,9.61-62.434-0.464l-56.639-33.392c-8.486-4.986-12.746-11.457-12.787-17.913h-0.002l0.188-25.111
	l58.839-33.392l-0.107,14.343l7.673-4.352c17.303-9.821,45.277-9.611,62.434,0.464l56.639,33.392
	c0.105,0.062,0.211,0.125,0.318,0.189l12.656-7.183L1386.38,1018.843L1386.38,1018.843z"/>
<path fill="#D0D0F9" d="M1299.3,1041.157l72.79-41.306l1.496,0.874c0.107,0.064,0.212,0.125,0.319,0.189l12.656-7.182l-0.185,25.113
	c-0.044,5.607-3.265,11.187-9.659,15.765l-60.739,34.466c-5.103,2.293-10.891,3.844-16.92,4.649L1299.3,1041.157L1299.3,1041.157z"
	/>
<path fill="#DFDFFB" d="M1319.97,1042.045c-17.303,9.819-45.279,9.61-62.434-0.466l-56.639-33.389
	c-17.156-10.075-17.035-26.228,0.268-36.047l53.535-30.379c17.304-9.821,45.279-9.612,62.435,0.464l56.64,33.392
	c17.154,10.076,17.035,26.226-0.271,36.047L1319.97,1042.045z"/>
<g transform="matrix(0.866025,-0.5,1,0.57735,-5119.64,-4782.66)">
	
		<text transform="matrix(0.866 0 0 0.866 -2109.1045 8239.9014)" fill="#7E7EEF" font-family="'AvenirNextLTPro-Bold'" font-size="111.2911px">B</text>
</g>
<path fill="#2E509E" d="M1033.777,304.043V232.67h-0.019c0.214-13.784-8.769-27.61-26.986-38.126
	c-36.01-20.792-94.395-20.792-130.404,0c-18.217,10.516-27.202,24.342-26.987,38.126h-0.007v70.96
	c-0.141,13.731,8.847,27.486,26.994,37.962c36.009,20.79,94.393,20.792,130.404,0c17.963-10.372,26.962-23.958,27.003-37.55
	H1033.777L1033.777,304.043z"/>
<path fill="#7812FF" d="M1033.777,304.043V232.67h-0.019c0.214-13.784-8.769-27.61-26.986-38.126
	c-36.01-20.792-94.395-20.792-130.404,0c-18.217,10.516-27.202,24.342-26.987,38.126h-0.007v70.96
	c-0.141,13.731,8.847,27.486,26.994,37.962c36.009,20.79,94.393,20.792,130.404,0c17.963-10.372,26.962-23.958,27.003-37.55
	H1033.777L1033.777,304.043z"/>
<path fill="#9647FF" d="M941.576,144.353L789.44,232.187l152.138,87.836l152.135-87.834L941.576,144.353z"/>
<path fill="#7812FF" d="M1017.712,276.067l-74.935-42.755c-1.282-0.735-2.916-0.284-3.648,0.998
	c-0.732,1.284-0.285,2.916,0.997,3.648l72.218,41.205L1017.712,276.067L1017.712,276.067z"/>
<path fill="#BE8EFF" d="M1093.713,232.189l-0.002,6.272l-152.133,87.834v-6.272L1093.713,232.189L1093.713,232.189z"/>
<path fill="#B37BFF" d="M789.44,232.192l0.002,6.271l152.133,87.834v-6.271L789.44,232.192L789.44,232.192z"/>
<path fill="#D50050" d="M1027.405,354.126c-1.763,1.311-6.323,1.412-8.361,0l-6.84,44.32c0,8.363,21.733,8.363,21.733,0
	L1027.405,354.126z"/>
<path fill="#AB0040" d="M1027.787,379.423l1.366,24.321c0.466-0.167,0.914-0.351,1.326-0.56L1027.787,379.423L1027.787,379.423z"/>
<path fill="#AB0040" d="M1017.51,403.915l2.878-39.497l-4.27,38.969C1016.559,403.585,1017.022,403.763,1017.51,403.915z"/>
<path fill="#AB0040" d="M1022.395,404.702c0.455,0.015,0.913,0.015,1.366,0l-0.698-31.362L1022.395,404.702z"/>
<path fill="#FFC900" d="M1023.285,357.826c-1.479,0-2.978-0.5-4.423-1.499c-1.215-0.844-1.516-2.509-0.677-3.724
	c0.84-1.215,2.509-1.52,3.724-0.679c1.148,0.796,1.784,0.633,2.562,0.057c1.184-0.883,2.863-0.638,3.744,0.546
	c0.883,1.182,0.639,2.859-0.546,3.742C1026.278,357.309,1024.79,357.826,1023.285,357.826L1023.285,357.826z"/>
<path fill="#ECECFC" d="M1023.07,350.928c-1.476,0-2.675-1.198-2.675-2.675v-62.811c0-2.869-1.546-5.531-4.036-6.952l-76.237-43.495
	c-1.282-0.736-1.73-2.364-0.997-3.649c0.732-1.284,2.365-1.734,3.648-0.998l76.24,43.495c4.155,2.37,6.735,6.815,6.735,11.6v62.811
	C1025.747,349.73,1024.547,350.928,1023.07,350.928z"/>
<path fill="#D50050" d="M1017.206,348.253c0-3.242,2.627-5.871,5.871-5.871c3.242,0,5.873,2.629,5.873,5.871
	c0,3.244-2.631,5.873-5.873,5.873C1019.833,354.126,1017.206,351.497,1017.206,348.253z"/>
<path fill="#C30049" d="M1028.912,348.583c-0.327,1.409-3.217,4.093-6.535,2.234c-3.548-1.987-2.868-6.517-0.112-8.354
	c-2.857,0.399-5.062,2.825-5.062,5.79c0,3.244,2.626,5.873,5.87,5.873C1026.206,354.126,1028.74,351.671,1028.912,348.583
	L1028.912,348.583z"/>
<path fill="#2E509E" d="M1792.86,669.221V546.978h-0.031c0.367-23.611-15.021-47.288-46.223-65.302
	c-61.677-35.606-161.671-35.606-223.348,0c-31.201,18.014-46.588,41.691-46.223,65.302h-0.01v121.535
	c-0.244,23.518,15.152,47.078,46.233,65.021c61.677,35.608,161.671,35.611,223.348,0c30.769-17.763,46.18-41.035,46.25-64.313
	H1792.86L1792.86,669.221z"/>
<path fill="#7812FF" d="M1792.86,669.221V546.978h-0.031c0.367-23.611-15.021-47.288-46.223-65.302
	c-61.677-35.606-161.671-35.606-223.348,0c-31.201,18.014-46.588,41.691-46.223,65.302h-0.01v121.535
	c-0.244,23.518,15.152,47.078,46.233,65.021c61.677,35.608,161.671,35.611,223.348,0c30.769-17.763,46.18-41.035,46.25-64.313
	H1792.86L1792.86,669.221z"/>
<path fill="#9647FF" d="M1634.926,395.714l-260.567,150.435L1634.93,696.59l260.57-150.436L1634.926,395.714z"/>
<path fill="#7812FF" d="M1765.335,621.303l-128.341-73.224c-2.198-1.262-4.996-0.488-6.25,1.707c-1.254,2.2-0.489,4.996,1.708,6.25
	l123.692,70.571L1765.335,621.303z"/>
<path fill="#BE8EFF" d="M1895.498,546.153l-0.005,10.744l-260.564,150.435V696.59L1895.498,546.153L1895.498,546.153z"/>
<path fill="#B37BFF" d="M1374.367,546.16l0.003,10.741l260.564,150.437v-10.742L1374.367,546.16z"/>
<path fill="#D50050" d="M1781.94,754.997c-3.019,2.247-10.829,2.417-14.32,0l-11.717,75.907c0,14.326,37.226,14.326,37.226,0
	L1781.94,754.997z"/>
<path fill="#AB0040" d="M1782.581,798.327l2.341,41.655c0.797-0.285,1.563-0.601,2.274-0.961L1782.581,798.327z"/>
<path fill="#AB0040" d="M1764.987,840.274l4.93-67.646l-7.313,66.743C1763.357,839.71,1764.15,840.011,1764.987,840.274
	L1764.987,840.274z"/>
<path fill="#AB0040" d="M1773.351,841.624c0.782,0.027,1.562,0.027,2.341,0l-1.196-53.715L1773.351,841.624L1773.351,841.624z"/>
<path fill="#FFC900" d="M1774.882,761.335c-2.535,0-5.099-0.855-7.575-2.567c-2.082-1.447-2.598-4.297-1.16-6.374
	c1.437-2.084,4.295-2.607,6.375-1.165c1.969,1.363,3.061,1.083,4.392,0.097c2.027-1.513,4.902-1.093,6.408,0.934
	c1.518,2.027,1.098,4.899-0.932,6.411c-2.384,1.777-4.93,2.664-7.509,2.664V761.335z"/>
<path fill="#ECECFC" d="M1774.523,749.525c-2.53,0-4.584-2.051-4.584-4.582V637.365c0-4.914-2.648-9.474-6.914-11.905
	l-130.575-74.499c-2.196-1.258-2.961-4.05-1.706-6.251c1.252-2.2,4.051-2.967,6.249-1.709l130.575,74.496
	c7.117,4.059,11.537,11.672,11.537,19.868v107.578c0,2.531-2.051,4.582-4.582,4.582H1774.523z"/>
<path fill="#D50050" d="M1764.469,744.943c0-5.555,4.501-10.056,10.056-10.056c5.553,0,10.058,4.501,10.058,10.056
	c0,5.555-4.505,10.058-10.058,10.058C1768.97,755.001,1764.469,750.498,1764.469,744.943z"/>
<path fill="#C30049" d="M1784.519,745.506c-0.56,2.41-5.512,7.007-11.193,3.824c-6.078-3.4-4.911-11.164-0.192-14.309
	c-4.893,0.683-8.67,4.841-8.67,9.919c0,5.555,4.498,10.058,10.055,10.058C1779.882,754.998,1784.22,750.792,1784.519,745.506z"/>
<path fill="#8427FF" d="M1641.536,519.246c22.092-12.755,57.965-12.755,80.058,0c22.092,12.755,22.092,33.465,0,46.223
	c-22.093,12.755-57.966,12.755-80.058,0C1619.441,552.711,1619.441,532.001,1641.536,519.246z"/>
<path fill="#9647FF" d="M1207.55-36.984c19.001-12.134,45.872-11.035,75.596,6.13c57.335,33.077,103.643,113.33,103.421,179.387
	c-0.049,32.761-11.645,55.812-30.345,66.606l0,0l-44.108,25.465v-20.604c-9.388-2.216-19.315-6.236-29.588-12.174
	c-57.333-33.029-103.692-113.381-103.493-179.215c0.024-11.048,1.354-20.992,3.824-29.74l-18.736-10.816l43.399-25.055
	L1207.55-36.984z"/>
<path fill="#7E1CFF" d="M1376.685,91.347c6.394,19.277,9.944,38.782,9.882,57.185c-0.049,32.761-11.645,55.812-30.345,66.606l0,0
	l-44.108,25.465v-20.604c-1.452-0.344-2.916-0.728-4.391-1.158v-87.678L1376.685,91.347z"/>
<path fill="#BE8EFF" d="M1134.916,54.076c-0.198,65.834,46.16,146.187,103.495,179.214c57.285,33.127,103.939,6.492,104.039-59.293
	c0.223-66.055-46.085-146.309-103.419-179.387C1181.744-38.467,1135.065-11.881,1134.916,54.076L1134.916,54.076z"/>
<path fill="#7E1CFF" d="M1238.689,12.218c-48.614-28.067-88.085-5.279-88.085,50.855c0,56.136,39.471,124.499,88.085,152.567
	c48.616,28.068,88.085,5.28,88.085-50.856C1326.774,108.649,1287.305,40.285,1238.689,12.218z"/>
<g>
	<defs>
		<path id="SVGID_17_" d="M1238.689,12.218c-48.614-28.067-88.085-5.279-88.085,50.855c0,56.136,39.471,124.499,88.085,152.567
			c48.616,28.068,88.085,5.28,88.085-50.856C1326.774,108.649,1287.305,40.285,1238.689,12.218z"/>
	</defs>
	<clipPath id="SVGID_18_">
		<use xlink:href="#SVGID_17_"  overflow="visible"/>
	</clipPath>
	<g clip-path="url(#SVGID_18_)">
		<path fill="#FFFFFF" d="M1244.937,8.612c-48.615-28.067-88.084-5.279-88.084,50.856c0,56.137,39.469,124.499,88.084,152.568
			c48.616,28.068,88.085,5.28,88.085-50.855C1333.022,105.044,1293.553,36.679,1244.937,8.612z"/>
		<path fill="#F7F2FF" d="M1218.786-1.921l-56.846,98.458c9.61,36.67,31.989,73.741,59.837,98.569l77.252-133.804
			c-14.934-22.068-33.709-40.922-54.095-52.691C1235.827,3.354,1227.042-0.118,1218.786-1.921L1218.786-1.921z M1158.831,82.14
			l49.355-85.484c-30.287-1.395-51.336,21.816-51.336,62.812C1156.85,66.853,1157.532,74.448,1158.831,82.14z"/>
		<path fill="#7E1CFF" d="M1248.191,189.501l-11.104-6.411v21.445l11.104,6.409V189.501z"/>
		<path fill="#7E1CFF" d="M1248.191,25.443l-11.104-6.411v21.444l11.104,6.41V25.443z"/>
		<path fill="#7E1CFF" d="M1304.389,157.053v-12.82l18.57,10.722v12.82L1304.389,157.053z"/>
		<path fill="#7E1CFF" d="M1162.305,75.022V62.203l18.572,10.722v12.818L1162.305,75.022z"/>
	</g>
</g>
<path fill="#1B7CFF" d="M1241.323,63.03l-5.173,2.988v49.378l5.173-2.988V63.03z"/>
<path fill="#1B7CFF" d="M1237.496,39.7l-5.174,2.988l9.455,26.578l5.174-2.987L1237.496,39.7z"/>
<path fill="#1B7CFF" d="M1203.79,98.269l-3.571,2.061l15.175,8.762l3.569-2.062L1203.79,98.269z"/>
<path fill="#046FFF" d="M1203.79,93.782l-3.571,2.062v4.487l3.571-2.061V93.782z"/>
<path fill="#046FFF" d="M1203.79,104.368l-3.571,2.061v4.485l3.571-2.062V104.368z"/>
<path fill="#1B7CFF" d="M1191.171,94.032l-3.571,2.061l12.621-0.247l3.571-2.061L1191.171,94.032z"/>
<path fill="#4E99FF" d="M1228.489,61.598v49.379l7.654,4.419V66.018l5.627,3.248l-9.454-26.578l-9.455,15.661L1228.489,61.598
	L1228.489,61.598z"/>
<path fill="#4E99FF" d="M1200.221,106.428l20.454,11.81v-6.098l-20.454-11.81v-4.483l-12.621,0.246l12.621,14.82V106.428z"/>
<path fill="#9647FF" d="M1222.073,100.926c2.821-1.802,6.813-1.639,11.227,0.911c8.517,4.912,15.392,16.831,15.36,26.642
	c-0.009,4.865-1.729,8.289-4.507,9.892l0,0l-6.55,3.782v-3.06c-1.395-0.33-2.87-0.926-4.395-1.807
	c-8.516-4.906-15.399-16.84-15.37-26.618c0.004-1.641,0.201-3.118,0.569-4.417l-2.784-1.607l6.445-3.721L1222.073,100.926z"/>
<path fill="#7E1CFF" d="M1247.199,119.986c0.95,2.863,1.478,5.76,1.469,8.493c-0.008,4.865-1.729,8.289-4.506,9.892l-6.552,3.782
	v-3.06c-0.214-0.052-0.432-0.108-0.653-0.172v-13.023L1247.199,119.986L1247.199,119.986z"/>
<path fill="#BE8EFF" d="M1211.289,114.449c-0.031,9.777,6.854,21.712,15.368,26.617c8.509,4.921,15.439,0.965,15.453-8.805
	c0.032-9.81-6.844-21.729-15.361-26.643c-8.507-4.913-15.44-0.963-15.463,8.831H1211.289z"/>
<path fill="#7E1CFF" d="M1226.7,108.234c-7.221-4.169-13.082-0.784-13.082,7.553c0,8.337,5.861,18.491,13.082,22.66
	c7.221,4.168,13.082,0.783,13.082-7.552C1239.782,122.555,1233.921,112.402,1226.7,108.234z"/>
<g>
	<defs>
		<path id="SVGID_19_" d="M1226.7,108.234c-7.221-4.169-13.082-0.784-13.082,7.553c0,8.337,5.861,18.491,13.082,22.66
			c7.221,4.168,13.082,0.783,13.082-7.552C1239.782,122.555,1233.921,112.402,1226.7,108.234z"/>
	</defs>
	<clipPath id="SVGID_20_">
		<use xlink:href="#SVGID_19_"  overflow="visible"/>
	</clipPath>
	<g clip-path="url(#SVGID_20_)">
		<path fill="#AD71FF" d="M1227.623,107.698c-7.22-4.169-13.083-0.784-13.083,7.554c0,8.336,5.863,18.489,13.083,22.657
			c7.221,4.169,13.084,0.786,13.084-7.552C1240.706,122.02,1234.843,111.867,1227.623,107.698z"/>
	</g>
</g>
<rect x="1675.544" y="433.125" fill="#150035" width="6.335" height="29.08"/>
<path fill="#4B7AFF" d="M1628.611,497.549c-13.146-11.681-16.261-34.637-6.957-51.277c9.3-16.644,27.494-20.661,40.629-8.973
	c13.135,11.683,16.261,34.646,6.956,51.281C1659.931,505.221,1641.751,509.225,1628.611,497.549L1628.611,497.549z"/>
<path fill="#7B9EFF" d="M1672.145,480.175c-14.743,7.341-38.656,7.341-53.403,0c-14.754-7.356-14.754-19.269,0-26.601
	c14.746-7.349,38.658-7.349,53.403,0C1686.892,460.906,1686.892,472.819,1672.145,480.175z"/>
<path fill="#366CFF" d="M1617.937,479.765c0.264,0.139,0.53,0.275,0.802,0.411c14.748,7.341,38.66,7.341,53.405,0
	c0.244-0.122,0.484-0.246,0.72-0.369c-0.552,1.931-1.239,3.825-2.065,5.66c-14.469,6.488-36.589,6.425-50.911-0.189
	C1619.117,483.504,1618.465,481.66,1617.937,479.765z"/>
<path fill="#9DB7FF" d="M1680.25,465.802c-19.225,11.095-50.398,11.095-69.638,0c-19.213-11.109-19.213-29.103,0-40.198
	c19.24-11.109,50.413-11.109,69.638,0C1699.483,436.699,1699.483,454.693,1680.25,465.802z"/>
<path fill="#6B92FF" d="M1682.827,464.198c0.116,0.406,0.207,0.813,0.268,1.222c-1.996,2.088-4.859,4.043-8.59,5.751
	c-16.045,7.341-42.072,7.341-58.122,0c-3.731-1.708-6.596-3.663-8.593-5.753c0.062-0.406,0.15-0.81,0.265-1.212
	c0.81,0.545,1.665,1.077,2.561,1.595c19.239,11.095,50.414,11.095,69.637,0C1681.155,465.281,1682.013,464.747,1682.827,464.198z"/>
<path fill="#9DB7FF" d="M1680.25,450.114c-19.225,11.097-50.398,11.097-69.638,0c-19.213-11.095-19.213-29.089,0-40.198
	c19.24-11.11,50.413-11.11,69.638,0C1699.483,421.025,1699.483,439.019,1680.25,450.114L1680.25,450.114z"/>
<path fill="#84A5FF" d="M1598.102,437.859c2.222,4.488,6.392,8.722,12.51,12.255c19.24,11.097,50.416,11.097,69.638,0
	c6.126-3.533,10.301-7.767,12.524-12.255c0.622,1.256,1.092,2.532,1.407,3.818c-2.552,4.009-6.469,7.763-11.754,10.999
	c-20.427,12.509-53.55,12.509-73.993,0c-5.278-3.235-9.193-6.99-11.741-10.996C1597.01,440.393,1597.48,439.117,1598.102,437.859z"
	/>
<path fill="#9DB7FF" d="M1680.25,433.871c-19.225,11.109-50.398,11.109-69.638,0c-19.213-11.102-19.213-29.089,0-40.201
	c19.24-11.092,50.413-11.092,69.638,0C1699.483,404.782,1699.483,422.769,1680.25,433.871z"/>
<path fill="#9DB7FF" d="M1680.25,433.871c-19.225,11.109-50.398,11.109-69.638,0c-19.213-11.102-19.213-29.089,0-40.201
	c19.24-11.092,50.413-11.092,69.638,0C1699.483,404.782,1699.483,422.769,1680.25,433.871z"/>
<path fill="#84A5FF" d="M1692.634,421.896c0.573,1.114,1.026,2.244,1.358,3.383c-2.564,3.959-6.502,7.669-11.814,10.865
	c-20.523,12.363-53.806,12.363-74.345,0c-4.896-2.948-8.625-6.337-11.183-9.95c0.339-1.45,0.871-2.886,1.599-4.298
	c2.251,4.382,6.376,8.514,12.366,11.975c19.24,11.109,50.414,11.109,69.64,0C1686.251,430.41,1690.378,426.277,1692.634,421.896z"/>
<path fill="#9DB7FF" d="M1680.25,416.834c-19.225,11.093-50.398,11.093-69.638,0c-19.213-11.104-19.213-29.097,0-40.212
	c19.24-11.081,50.413-11.081,69.638,0C1699.483,387.736,1699.483,405.73,1680.25,416.834L1680.25,416.834z"/>
<path fill="#84A5FF" d="M1692.419,405.252c0.56,1.036,1.017,2.085,1.369,3.143c-2.541,3.88-6.397,7.514-11.571,10.651
	c-20.312,12.314-53.248,12.314-73.575,0c-5.169-3.138-9.022-6.772-11.558-10.65c0.351-1.057,0.808-2.109,1.369-3.145
	c2.297,4.239,6.35,8.226,12.158,11.581c19.24,11.093,50.415,11.093,69.637,0C1686.063,413.478,1690.12,409.491,1692.419,405.252z"/>
<path fill="#FFE500" d="M1775.985,198.921c0-72.101-58.448-130.544-130.541-130.544c-72.101,0-130.545,58.443-130.545,130.544
	c0,29.088,9.639,55.864,25.727,77.58c0,0,37.425,47.145,55.872,105.471c1.125,6.249,5.83,12.325,14.12,17.111
	c19.24,11.11,50.415,11.11,69.637,0c8.313-4.786,12.806-10.89,13.936-17.142c18.436-58.31,56.072-105.44,56.072-105.44
	C1766.351,254.784,1775.985,228.008,1775.985,198.921L1775.985,198.921z"/>
<path fill="#FFFFFF" d="M1607.03,87.86c-5.354,0.755-12.179,3.693-18.855,8.833c-2.371,1.826-2.816,5.235-0.987,7.607
	c1.824,2.372,5.234,2.813,7.607,0.988c4.902-3.774,9.82-6.131,13.751-6.686c2.964-0.418,5.032-3.164,4.612-6.13
	C1612.74,89.508,1609.994,87.441,1607.03,87.86L1607.03,87.86z"/>
<path fill="#FFFFFF" d="M1561.751,117.96c-18.72,20.197-33.709,49.855-29.625,84.588c5.72,48.609,24.001,63.848,43.79,98.489
	c8.675,15.19,15.173,27.849,19.99,39.762c1.124,2.775,4.288,4.117,7.062,2.995c2.775-1.122,4.118-4.287,2.997-7.062
	c-4.977-12.305-11.668-25.388-20.63-41.076c-18.997-33.254-36.944-47.707-42.434-94.376c-3.67-31.213,9.986-57.795,26.807-75.947
	c2.035-2.196,1.904-5.631-0.29-7.666C1567.22,115.632,1563.787,115.762,1561.751,117.96z"/>
<path fill="#FFC500" d="M1680.25,399.082c-19.225,11.11-50.398,11.11-69.638,0c-19.213-11.098-19.213-29.088,0-40.191
	c19.24-11.105,50.413-11.105,69.638,0C1699.483,369.994,1699.483,387.984,1680.25,399.082z"/>
<path fill="#84A5FF" d="M1598.655,387.858c2.326,4.101,6.313,7.961,11.962,11.224c19.238,11.11,50.415,11.11,69.637,0
	c5.655-3.263,9.647-7.122,11.976-11.224c0.068,0.118,0.135,0.239,0.2,0.359c-1.722,5.423-6.115,10.607-13.175,14.805
	c-18.673,11.092-48.949,11.092-67.636,0c-7.055-4.198-11.443-9.382-13.163-14.806
	C1598.521,388.097,1598.586,387.976,1598.655,387.858z"/>
<path fill="#FFF284" d="M1604.339,236.318c30.262,55.31,29.61,107.521,28.617,122.798c-0.192,3.061,0.819,6.045,2.852,8.439
	c2.781,3.235,6.431,4.715,10.334,4.392c3.88-0.339,7.237-2.464,9.222-5.794c1.186-2,1.718-4.356,1.566-6.853
	c-3.492-57.393,22.138-102.021,36.319-122.011l-23.822,7.459c-5.011,1.558-10.261-0.916-12.212-5.761
	c-2.454-6.119-6.707-16.64-9.785-24.254l-10.743,25.601c-1.06,2.523-3.125,4.507-5.684,5.475c-2.54,0.962-5.412,0.832-7.869-0.364
	L1604.339,236.318L1604.339,236.318z M1645.043,380.215c-5.871,0-11.351-2.49-15.243-7.014c-3.699-4.3-5.401-9.413-5.066-14.623
	c1.017-15.48,1.646-70.349-32.488-126.761c-1.2-1.983-0.965-4.461,0.58-6.174c1.529-1.684,3.951-2.148,6.004-1.152l27.9,13.551
	c0.6,0.276,1.107,0.144,1.38,0.046c0.255-0.09,0.732-0.337,0.98-0.937l13.628-32.455c0.818-1.959,3.004-3.241,4.826-3.212
	c2.078,0.005,3.922,1.26,4.705,3.186c2.464,6.074,9.234,22.807,12.627,31.247c0.3,0.828,1.222,1.241,2.094,0.964l32.909-10.307
	c2.186-0.708,4.55,0.102,5.839,2.012c1.288,1.875,1.196,4.33-0.232,6.108c-10.441,13.002-44.211,60.35-40.334,124.106
	c0.252,4.124-0.685,8.126-2.706,11.534c-3.351,5.661-9.035,9.241-15.59,9.804C1646.241,380.196,1645.644,380.215,1645.043,380.215
	L1645.043,380.215z"/>
<g id="People">
</g>
</svg>
